<?xml version="1.0" standalone="no"?>
<!DOCTYPE svg PUBLIC "-//W3C//DTD SVG 20010904//EN"
 "http://www.w3.org/TR/2001/REC-SVG-20010904/DTD/svg10.dtd">
<svg version="1.0" xmlns="http://www.w3.org/2000/svg"
 width="842.000000pt" height="292.000000pt" viewBox="0 0 842.000000 292.000000"
 preserveAspectRatio="xMidYMid meet">

<g transform="translate(0.000000,292.000000) scale(0.100000,-0.100000)"
fill="#000000" stroke="none">
<path d="M418 2602 c-17 -3 -18 -24 -18 -264 0 -229 -2 -264 -16 -280 -16 -17
-18 -17 -30 0 -10 13 -13 78 -14 280 l0 262 -25 0 -25 0 0 -262 c-1 -215 -3
-267 -15 -282 -21 -28 -21 -399 0 -519 58 -334 289 -604 610 -714 73 -25 216
-53 267 -53 l30 0 -4 271 c-3 211 -6 272 -17 278 -7 5 -35 11 -61 14 -139 17
-259 144 -290 307 -5 29 -10 130 -10 224 0 136 -3 176 -15 192 -12 16 -14 67
-15 287 l0 267 -25 0 -25 0 0 -267 c-1 -206 -4 -272 -14 -285 -12 -17 -14 -17
-29 0 -14 16 -17 55 -19 283 l-3 264 -22 3 -23 3 0 -268 c-1 -203 -4 -272 -14
-285 -12 -16 -14 -16 -29 3 -15 17 -17 51 -17 284 l0 265 -25 0 -25 0 0 -268
c0 -208 -3 -272 -13 -286 -13 -18 -14 -18 -23 0 -4 10 -13 138 -19 284 -9 244
-11 265 -27 262z"/>
<path d="M1170 2348 l0 -264 72 -12 c137 -24 253 -113 300 -232 19 -49 22 -79
26 -257 3 -158 7 -205 18 -214 11 -9 14 -64 14 -300 l0 -289 25 0 25 0 0 288
c1 222 4 291 14 304 12 17 14 17 30 0 14 -16 16 -53 16 -305 l0 -287 25 0 25
0 0 288 c1 222 4 291 14 304 12 17 14 17 30 0 14 -16 16 -53 16 -305 l0 -287
25 0 25 0 0 286 c0 185 4 292 11 305 10 20 11 20 30 3 18 -16 19 -34 19 -306
l0 -288 26 0 26 0 -3 288 c-3 236 -1 292 10 306 13 15 15 15 30 -6 13 -19 16
-67 20 -306 3 -282 3 -283 25 -280 21 3 21 3 17 286 -3 264 -2 284 15 303 17
19 18 38 16 227 -4 226 -16 310 -62 429 -81 211 -269 407 -478 500 -78 35
-221 70 -320 78 l-82 8 0 -265z"/>
<path d="M7933 2589 c-135 -67 -110 -266 38 -298 180 -39 271 218 105 298 -54
26 -90 26 -143 0z m134 -8 c99 -45 116 -167 34 -243 -36 -34 -46 -38 -92 -38
-83 0 -139 47 -154 130 -9 54 28 119 85 148 54 27 73 27 127 3z"/>
<path d="M7950 2450 c0 -89 3 -110 14 -110 11 0 16 14 18 48 l3 47 35 -47 c19
-26 43 -47 53 -48 23 0 22 6 -14 52 l-32 39 22 20 c47 44 12 109 -59 109 l-40
0 0 -110z m64 74 c9 -3 16 -17 16 -30 0 -19 -5 -24 -25 -24 -21 0 -25 5 -25
30 0 31 6 35 34 24z"/>
<path d="M2340 1685 l0 -895 210 0 211 0 -5 303 c-12 660 -17 1081 -12 1076 3
-3 71 -306 151 -674 80 -369 148 -678 151 -687 5 -16 24 -18 224 -18 219 0
220 0 225 23 3 12 70 321 150 686 79 365 147 666 150 669 3 3 3 -106 0 -244
-3 -137 -7 -448 -10 -691 l-6 -443 211 0 210 0 0 895 0 895 -354 0 -354 0 -10
-47 c-12 -52 -160 -844 -190 -1013 -11 -58 -22 -98 -25 -90 -3 8 -20 96 -37
195 -31 175 -166 888 -177 933 l-5 22 -354 0 -354 0 0 -895z"/>
<path d="M4430 1685 l0 -895 210 0 211 0 -5 63 c-7 79 -16 1327 -10 1307 3 -8
71 -319 152 -690 l148 -675 221 -3 222 -2 11 52 c6 29 74 339 150 688 l140
635 -5 -687 -5 -688 205 0 205 0 0 895 0 895 -349 0 c-324 0 -350 -1 -355 -17
-7 -23 -168 -885 -192 -1023 -9 -58 -20 -108 -24 -113 -3 -4 -12 30 -19 75
-10 65 -164 884 -197 1046 l-6 32 -354 0 -354 0 0 -895z"/>
<path d="M6520 1840 c0 -509 3 -755 11 -792 46 -215 193 -291 559 -291 324 1
458 51 532 201 l33 67 3 777 3 778 -221 0 -220 0 -1 -697 c0 -513 -3 -707 -12
-733 -29 -84 -182 -95 -225 -16 -16 28 -17 92 -20 739 l-3 707 -219 0 -220 0
0 -740z"/>
<path d="M1103 1941 c-111 -38 -176 -124 -177 -236 -2 -146 110 -257 260 -257
78 -1 137 26 190 84 129 141 66 358 -119 413 -64 19 -90 19 -154 -4z"/>
<path d="M3028 593 l-28 -4 0 -145 0 -144 68 0 c119 0 175 50 174 155 0 61
-20 98 -64 121 -31 16 -106 25 -150 17z m106 -37 c45 -19 66 -52 66 -103 0
-82 -40 -123 -120 -123 l-40 0 0 114 c0 82 4 116 13 119 22 9 47 7 81 -7z"/>
<path d="M6123 593 c-23 -4 -23 -7 -23 -149 0 -137 1 -144 20 -144 18 0 20 7
20 65 0 59 2 65 21 65 39 0 58 -20 74 -75 13 -42 21 -55 36 -55 10 0 19 1 19
3 -1 19 -32 112 -41 123 -10 12 -8 19 10 37 22 25 27 66 11 97 -16 30 -85 45
-147 33z m104 -44 c18 -15 17 -54 -3 -73 -8 -9 -31 -16 -50 -16 l-34 0 0 48
c0 27 3 52 7 56 10 10 62 -1 80 -15z"/>
<path d="M6498 584 c-58 -31 -48 -105 18 -138 58 -29 74 -45 74 -71 0 -36 -24
-48 -79 -42 -37 4 -51 2 -55 -8 -12 -32 103 -37 143 -7 19 14 27 30 29 59 3
45 -10 61 -79 96 -54 27 -63 58 -24 83 22 14 33 16 55 7 24 -9 30 -8 35 5 3 8
0 19 -7 24 -21 12 -80 9 -110 -8z"/>
<path d="M386 543 c-3 -27 -8 -92 -12 -146 -6 -93 -5 -99 12 -95 16 3 19 14
21 63 2 33 5 84 9 114 l6 54 37 -114 c50 -154 60 -154 117 6 l43 120 1 -55 c0
-30 3 -85 7 -122 5 -57 9 -68 24 -68 17 0 18 7 14 58 -3 31 -7 97 -11 145 -6
88 -6 88 -32 85 -24 -3 -30 -13 -66 -116 l-39 -113 -32 98 c-44 133 -44 133
-70 133 -20 0 -24 -6 -29 -47z"/>
<path d="M862 470 c3 -113 4 -121 29 -145 19 -19 36 -26 66 -27 97 -1 116 27
121 180 4 107 3 112 -16 112 -19 0 -20 -7 -24 -109 -3 -121 -17 -151 -67 -151
-57 0 -71 33 -71 159 0 96 -1 101 -21 101 -20 0 -21 -4 -17 -120z"/>
<path d="M1280 445 l0 -145 80 0 c64 0 80 3 80 15 0 12 -13 15 -60 15 l-60 0
0 130 c0 123 -1 130 -20 130 -19 0 -20 -7 -20 -145z"/>
<path d="M1550 575 c0 -11 11 -15 40 -15 l40 0 0 -130 c0 -123 1 -130 20 -130
19 0 20 7 20 130 l0 130 45 0 c33 0 45 4 45 15 0 12 -18 15 -105 15 -87 0
-105 -3 -105 -15z"/>
<path d="M1930 445 c0 -138 1 -145 20 -145 19 0 20 7 20 145 0 138 -1 145 -20
145 -19 0 -20 -7 -20 -145z"/>
<path d="M2176 493 c-4 -54 -9 -119 -12 -145 -5 -43 -4 -48 14 -48 18 0 21 9
27 108 3 59 7 111 9 115 1 5 19 -43 41 -107 29 -88 42 -116 54 -114 10 2 31
45 57 117 l41 114 6 -48 c4 -26 7 -79 7 -116 0 -63 2 -69 21 -69 20 0 21 3 14
123 -8 159 -10 167 -39 167 -21 0 -28 -11 -55 -85 -17 -47 -34 -97 -37 -111
-9 -36 -17 -22 -55 94 -31 96 -35 102 -60 102 -27 0 -27 0 -33 -97z"/>
<path d="M2650 445 l0 -145 85 0 c68 0 85 3 85 15 0 10 -16 15 -62 17 l-63 3
0 50 0 50 58 3 c42 2 57 7 57 17 0 12 -14 15 -60 15 l-60 0 0 45 0 45 60 0
c47 0 60 3 60 15 0 12 -16 15 -80 15 l-80 0 0 -145z"/>
<path d="M3430 445 c0 -138 1 -145 20 -145 19 0 20 7 20 145 0 138 -1 145 -20
145 -19 0 -20 -7 -20 -145z"/>
<path d="M3696 453 c-25 -76 -46 -141 -46 -145 0 -5 8 -8 19 -8 13 0 22 12 31
45 l13 45 52 0 53 0 14 -42 c11 -32 21 -44 38 -46 16 -3 21 0 18 10 -3 7 -25
73 -49 146 -41 125 -45 132 -70 132 -25 0 -29 -7 -73 -137z m90 45 c9 -29 19
-59 22 -65 3 -9 -8 -13 -37 -13 -24 0 -41 5 -41 12 0 11 33 118 37 118 1 0 9
-24 19 -52z"/>
<path d="M4300 480 c0 -132 12 -164 65 -179 43 -12 95 1 121 30 16 18 20 40
22 140 4 115 3 119 -17 119 -20 0 -21 -5 -21 -108 0 -126 -11 -152 -64 -152
-58 0 -70 26 -74 151 -3 85 -7 109 -18 109 -11 0 -14 -23 -14 -110z"/>
<path d="M4710 446 c0 -139 1 -146 20 -146 19 0 20 7 20 117 l0 116 51 -84
c29 -46 61 -99 71 -116 12 -19 28 -33 39 -33 18 0 19 9 19 145 0 122 -2 145
-15 145 -12 0 -15 -20 -15 -116 l0 -117 -68 114 c-57 95 -73 115 -95 117 l-27
3 0 -145z"/>
<path d="M5130 445 c0 -138 1 -145 20 -145 19 0 20 7 20 145 0 138 -1 145 -20
145 -19 0 -20 -7 -20 -145z"/>
<path d="M5389 448 c43 -128 50 -143 71 -143 20 0 28 15 71 135 27 74 49 138
49 143 0 4 -9 7 -19 7 -16 0 -27 -21 -58 -115 -20 -63 -40 -115 -43 -115 -3 0
-20 52 -39 115 -31 103 -37 115 -57 115 -22 0 -22 -2 25 -142z"/>
<path d="M5750 445 l0 -145 85 0 c69 0 85 3 85 15 0 12 -14 15 -65 15 l-65 0
0 55 0 55 55 0 c42 0 55 3 55 15 0 12 -13 15 -55 15 l-55 0 0 45 0 45 60 0
c47 0 60 3 60 15 0 12 -16 15 -80 15 l-80 0 0 -145z"/>
<path d="M6820 445 c0 -138 1 -145 20 -145 19 0 20 7 20 145 0 138 -1 145 -20
145 -19 0 -20 -7 -20 -145z"/>
<path d="M7020 575 c0 -11 12 -15 45 -15 l45 0 0 -130 c0 -123 1 -130 20 -130
19 0 20 7 20 130 l0 130 45 0 c33 0 45 4 45 15 0 12 -19 15 -110 15 -91 0
-110 -3 -110 -15z"/>
<path d="M7400 584 c0 -3 20 -42 45 -86 39 -70 45 -88 45 -139 0 -46 3 -59 15
-59 12 0 15 13 15 57 0 54 23 110 88 211 13 21 13 22 -10 22 -19 0 -30 -12
-57 -67 l-33 -68 -34 68 c-25 49 -40 67 -54 67 -11 0 -20 -3 -20 -6z"/>
</g>
</svg>
